<?xml version="1.0" encoding="UTF-8" standalone="no"?>
<!-- Created with Inkscape (http://www.inkscape.org/) -->

<svg
   xmlns:dc="http://purl.org/dc/elements/1.1/"
   xmlns:cc="http://creativecommons.org/ns#"
   xmlns:rdf="http://www.w3.org/1999/02/22-rdf-syntax-ns#"
   xmlns:svg="http://www.w3.org/2000/svg"
   xmlns="http://www.w3.org/2000/svg"
   xmlns:sodipodi="http://sodipodi.sourceforge.net/DTD/sodipodi-0.dtd"
   xmlns:inkscape="http://www.inkscape.org/namespaces/inkscape"
   version="1.1"
   id="svg3767"
   width="290.66666"
   height="116"
   viewBox="0 0 290.66666 116"
   sodipodi:docname="plumrz-magazine-real.svg"
   inkscape:version="0.92.3 (2405546, 2018-03-11)">
  <metadata
     id="metadata3773">
    <rdf:RDF>
      <cc:Work
         rdf:about="">
        <dc:format>image/svg+xml</dc:format>
        <dc:type
           rdf:resource="http://purl.org/dc/dcmitype/StillImage" />
        <dc:title></dc:title>
      </cc:Work>
    </rdf:RDF>
  </metadata>
  <defs
     id="defs3771" />
  <sodipodi:namedview
     pagecolor="#ffffff"
     bordercolor="#666666"
     borderopacity="1"
     objecttolerance="10"
     gridtolerance="10"
     guidetolerance="10"
     inkscape:pageopacity="0"
     inkscape:pageshadow="2"
     inkscape:window-width="1280"
     inkscape:window-height="751"
     id="namedview3769"
     showgrid="false"
     inkscape:zoom="3.9392203"
     inkscape:cx="145.33333"
     inkscape:cy="45.145316"
     inkscape:window-x="0"
     inkscape:window-y="0"
     inkscape:window-maximized="1"
     inkscape:current-layer="svg3767" />
  <path
     style="fill:#000000;stroke-width:1.33333337"
     d="m 7.6180493,74.346434 v -40 h 7.2222217 c 4.434807,0 7.428202,0.617937 7.755917,1.601081 0.391502,1.174508 1.80693,0.996889 5.312616,-0.666667 2.628407,-1.247261 6.37769,-2.267748 8.331739,-2.267748 9.820296,0 12.710839,6.973836 12.710839,30.666667 0,18.411024 -1.923662,26.794953 -6.739348,29.372231 -3.47698,1.860824 -10.716857,1.510802 -14.593985,-0.705564 -1.833333,-1.048028 -3.783333,-1.926767 -4.333333,-1.952754 -0.55,-0.02599 -1,5.352754 -1,11.95275 v 12 H 14.951382 7.6180493 Z M 32.737362,81.61703 c 1.883576,-4.133999 2.069091,-31.058056 0.247021,-35.850463 -1.413198,-3.716993 -6.237785,-4.682016 -9.099667,-1.820133 -2.225656,2.225656 -2.225656,37.24101 0,39.466666 2.757364,2.757364 7.187486,1.858558 8.852646,-1.79607 z M 60.951381,51.679767 V 9.0131003 h 7.333334 7.333333 V 51.679767 94.346434 h -7.333333 -7.333334 z m 28.36407,39.063283 c -2.01931,-3.077891 -2.427277,-7.452894 -2.797485,-30 L 86.084552,34.346434 h 7.433414 7.433414 v 20.5 c 0,28.15356 1.21303,32.46561 8.09659,28.78164 2.39146,-1.279872 2.57008,-3.040143 2.57008,-25.328552 V 34.346434 h 7.33333 7.33333 v 30 30 h -7.33333 c -6.54022,0 -7.33333,-0.300166 -7.33333,-2.775412 v -2.775414 l -4.49071,2.775414 c -2.64183,1.63274 -6.7463,2.775412 -9.969267,2.775412 -4.481215,0 -5.908915,-0.655974 -7.842622,-3.603384 z M 138.28471,64.346434 v -30 h 7.33334 c 5.62962,0 7.33333,0.464646 7.33333,2 0,2.575756 0.40199,2.528549 5.63444,-0.661683 6.28247,-3.830417 13.49597,-3.531088 16.82263,0.698064 l 2.65062,3.369715 4.96555,-3.369715 c 5.51897,-3.745276 13.11522,-4.406148 16.9769,-1.476984 4.0033,3.036584 4.94986,9.74844 4.94986,35.098467 v 24.342136 h -7.30391 -7.30392 l -0.36274,-24.85608 c -0.31216,-21.388783 -0.66947,-25.049348 -2.56144,-26.241575 -1.62476,-1.023843 -3.10392,-0.792359 -5.66667,0.886816 l -3.46799,2.272313 v 23.969263 23.969263 h -6.66666 -6.66667 V 70.441672 c 0,-19.953824 -0.34629,-24.25106 -2.09524,-26 -2.60291,-2.602908 -3.25067,-2.60474 -6.94141,-0.01963 -2.87503,2.013733 -2.96335,2.788692 -2.96335,25.999993 V 94.34643 h -7.33333 -7.33334 z m 78.66667,0 v -30 h 7.33333 c 7.29704,0 7.33333,0.02027 7.33333,4.094936 v 4.094936 l 4.49078,-4.761603 c 2.46992,-2.618881 5.76992,-4.761603 7.33333,-4.761603 2.55664,0 2.84256,0.737627 2.84256,7.333334 v 7.333333 h -4.43425 c -2.91111,0 -5.43007,1.06 -7.33334,3.085935 -2.7138,2.888716 -2.89908,4.379926 -2.89908,23.333333 v 20.247399 h -7.33333 -7.33333 z m 36,24.70615 c 0,-3.60141 2.72945,-11.487317 8.53758,-24.666666 L 270.02655,45.0131 h -7.87092 -7.87092 v -5.333333 -5.333333 h 16 16 v 3.81855 c 0,2.100203 -3.89989,12.750203 -8.66644,23.666667 -4.76653,10.916464 -8.66653,20.298116 -8.66667,20.848116 -1.2e-4,0.55 3.89978,1 8.66644,1 h 8.66667 v 5.333333 5.333334 h -16.66667 -16.66666 z"
     id="path3777"
     inkscape:connector-curvature="0" />
</svg>
